<?xml version="1.0" ?><svg height="64" viewBox="0 0 64 64" width="64" xmlns="http://www.w3.org/2000/svg"><defs><style>.cls-1{fill:none;stroke:#000;stroke-linejoin:round;stroke-width:2px;}</style></defs><title/><g data-name="15-Online Shopping - E Commerce" id="_15-Online_Shopping_-_E_Commerce"><rect class="cls-1" height="62" rx="2" ry="2" width="62" x="1" y="1"/><line class="cls-1" x1="1" x2="63" y1="9" y2="9"/><line class="cls-1" x1="4" x2="6" y1="5" y2="5"/><line class="cls-1" x1="8" x2="10" y1="5" y2="5"/><line class="cls-1" x1="58" x2="60" y1="5" y2="5"/><path class="cls-1" d="M35,22H15v6h4v9a1,1,0,0,0,1,1H30a1,1,0,0,0,1-1V28h4Z"/><line class="cls-1" x1="19" x2="31" y1="30" y2="30"/><line class="cls-1" x1="19" x2="31" y1="34" y2="34"/><path class="cls-1" d="M28,22a3,3,0,0,1-6,0"/><rect class="cls-1" height="40" rx="2" ry="2" width="40" x="5" y="16"/><line class="cls-1" x1="5" x2="45" y1="44" y2="44"/><rect class="cls-1" height="4" width="10" x="9" y="48"/><line class="cls-1" x1="42" x2="40" y1="48" y2="48"/><line class="cls-1" x1="38" x2="36" y1="48" y2="48"/><line class="cls-1" x1="42" x2="32" y1="52" y2="52"/><polyline class="cls-1" points="48 18 59 18 59 30 48 30"/><line class="cls-1" x1="60" x2="58" y1="34" y2="34"/><line class="cls-1" x1="56" x2="54" y1="34" y2="34"/><line class="cls-1" x1="54" x2="52" y1="54" y2="54"/><line class="cls-1" x1="50" x2="48" y1="54" y2="54"/><line class="cls-1" x1="60" x2="48" y1="38" y2="38"/><line class="cls-1" x1="60" x2="48" y1="42" y2="42"/><line class="cls-1" x1="60" x2="48" y1="46" y2="46"/><line class="cls-1" x1="60" x2="48" y1="50" y2="50"/></g></svg>